<?xml version="1.0" encoding="utf-8"?>
<!-- Generator: Adobe Illustrator 23.0.1, SVG Export Plug-In . SVG Version: 6.00 Build 0)  -->
<svg version="1.1" id="Layer_1" xmlns="http://www.w3.org/2000/svg" xmlns:xlink="http://www.w3.org/1999/xlink" x="0px" y="0px"
	 viewBox="0 0 669.9 80" style="enable-background:new 0 0 669.9 80;" xml:space="preserve">
<style type="text/css">
	.st0{fill-rule:evenodd;clip-rule:evenodd;fill:#002569;}
	.st1{fill:#FFFFFF;}
	.st2{fill:#0C0C0C;}
	.st3{font-family:'OpenSans-Bold';}
	.st4{font-size:32px;}
</style>
<g id="XMLID_1_">
	<g id="XMLID_22_">
		<polygon id="XMLID_80_" class="st0" points="0,0 80,0 80,80 0,80 		"/>
	</g>
	<g id="XMLID_2_">
		<path id="XMLID_18_" class="st1" d="M52.9,39.5c-1.5-2.2-3.6-3.9-6.4-4.8c-0.7-0.2-1.5-0.4-2.2-0.5S42.8,34,42,34
			c-0.4,0-0.9,0-1.4,0s-0.9,0-1.4,0c-0.4,0-0.8,0-1.3,0c-0.4,0-0.9,0-1.3,0c-0.4,0-0.9,0-1.3,0c-0.4,0-0.9,0-1.3,0
			c-0.4,0-0.8,0-1.3,0c-0.4,0-0.9,0-1.3,0s-0.9,0-1.3,0s-0.9,0-1.3,0v1.2c0,0,0,0,0.1,0c0,0,0,0,0.1,0c1.2,0.1,2.2,0.2,2.8,0.5
			c0.7,0.3,1,1.2,1,2.6v17.4c0,1.4-0.3,2.3-1,2.6c-0.5,0.2-1.2,0.4-2,0.5c-0.6-0.1-1.2-0.3-1.6-0.6c-0.5-0.4-1-1.1-1.4-1.9L17,33.5
			h-1.4L6.2,56.2c-0.4,1-0.9,1.7-1.6,2.1C4,58.6,3.1,58.8,2,58.8V60h9v-1.2h-0.8c-0.1,0-0.2,0-0.3,0s-0.2,0-0.3,0
			c-0.4,0-0.9-0.1-1.2-0.4c-0.4-0.2-0.6-0.6-0.6-1.1c0-0.2,0-0.4,0.1-0.5C8,56.6,8,56.5,8.1,56.3l2-5.1h10.4l2.1,5.1
			c0.1,0.2,0.2,0.4,0.3,0.7c0.1,0.2,0.1,0.5,0.1,0.7c0,0.4-0.2,0.7-0.4,0.8c-0.3,0.2-0.6,0.3-1,0.3c-0.2,0-0.3,0-0.5,0
			c-0.1,0-0.3,0-0.4,0h-0.9V60H29h1.6h11.7c3.9,0,7-1.2,9.4-3.5c2.4-2.4,3.6-5.5,3.6-9.3C55.2,44.3,54.4,41.8,52.9,39.5z M10.6,49.5
			L14.8,39c0-0.1,0.1-0.2,0.1-0.2c0-0.1,0.1-0.2,0.1-0.2c0-0.1,0.1-0.2,0.1-0.3s0.1-0.2,0.1-0.3c0.1,0.4,0.2,0.8,0.4,1.3
			c0.2,0.4,0.3,0.8,0.5,1.3c0,0.1,0.1,0.2,0.1,0.3c0.1,0.1,0.1,0.2,0.1,0.3l3.4,8.3C19.7,49.5,10.6,49.5,10.6,49.5z M48.5,55.2
			c-1.3,2.3-3.7,3.5-7.2,3.5c-1.8,0-3.1-0.2-3.7-0.7c-0.6-0.5-0.9-1.7-0.9-3.6V35.3c0.2,0,0.5,0,0.7-0.1c0.2,0,0.5,0,0.7,0
			s0.4,0,0.7,0c0.2,0,0.5,0,0.7,0c3.8,0,6.6,1.1,8.4,3.2c1.8,2.1,2.6,5,2.6,8.8C50.6,50.1,49.9,52.8,48.5,55.2z"/>
		<path id="XMLID_14_" class="st1" d="M67.9,45.9c2.1,0.1,4,0.7,5.8,1.8c1.7,1.1,2.6,2.9,2.6,5.2c0,2.2-0.8,4-2.3,5.2
			c-1.5,1.3-3.3,1.9-5.4,1.9H55.2v-1.2c0,0,0,0,0.1,0c0,0,0,0,0.1,0c1.3-0.1,2.2-0.2,2.8-0.5s1-1.2,1-2.6V38.3c0-1.4-0.3-2.3-1-2.6
			s-1.6-0.5-2.8-0.5c0,0,0,0-0.1,0c0,0,0,0-0.1,0V34h12.6c1.8,0,3.4,0.5,4.8,1.4s2.2,2.4,2.2,4.3c0,2.1-0.7,3.6-2.1,4.5
			C71.3,45,69.7,45.6,67.9,45.9L67.9,45.9z M63.1,46.7v9c0,1.3,0.4,2.1,1.1,2.4c0.7,0.4,1.6,0.5,2.7,0.5c1.9,0,3.2-0.6,3.9-1.9
			c0.7-1.2,1.1-2.7,1.1-4.4c0-2.9-0.9-4.5-2.7-5C67.3,46.9,65.3,46.7,63.1,46.7L63.1,46.7z M63.1,45.4c2,0,3.8-0.2,5.3-0.7
			s2.2-1.9,2.2-4.4c0-1.6-0.3-2.8-0.9-3.7s-1.8-1.4-3.5-1.4h-3.1V45.4L63.1,45.4z"/>
	</g>
</g>
<text transform="matrix(1 0 0 1 102 52.6502)" class="st2 st3 st4">International Comparison  Program</text>
</svg>
